<?xml version="1.0" standalone="no"?><!DOCTYPE svg PUBLIC "-//W3C//DTD SVG 1.1//EN" "http://www.w3.org/Graphics/SVG/1.1/DTD/svg11.dtd"><svg t="1656824487024" class="icon" viewBox="0 0 1024 1024" version="1.1" xmlns="http://www.w3.org/2000/svg" p-id="10977" xmlns:xlink="http://www.w3.org/1999/xlink" width="200" height="200"><defs><style type="text/css">@font-face { font-family: feedback-iconfont; src: url("//at.alicdn.com/t/font_1031158_u69w8yhxdu.woff2?t=1630033759944") format("woff2"), url("//at.alicdn.com/t/font_1031158_u69w8yhxdu.woff?t=1630033759944") format("woff"), url("//at.alicdn.com/t/font_1031158_u69w8yhxdu.ttf?t=1630033759944") format("truetype"); }
</style></defs><path d="M853.333333 955.733333H512c-27.904 0-52.343467-10.308267-72.6528-30.600533C419.601067 905.403733 409.6 881.2544 409.6 853.333333c0-27.8016 9.949867-52.189867 29.5424-72.448C459.810133 760.8832 484.181333 750.933333 512 750.933333h341.333333c27.921067 0 52.087467 10.018133 71.799467 29.7472C945.425067 800.989867 955.733333 825.429333 955.733333 853.333333c0 28.023467-10.359467 52.258133-30.805333 72.004267C905.591467 945.373867 881.3568 955.733333 853.333333 955.733333zM512 785.066667c-18.909867 0-34.850133 6.519467-48.708267 19.950933C450.2528 818.500267 443.733333 834.440533 443.733333 853.333333c0 18.7904 6.4512 34.389333 19.746134 47.6672C477.354667 914.858667 493.2096 921.6 512 921.6h341.333333c18.670933 0 34.2016-6.673067 47.4624-20.394667C914.926933 887.534933 921.6 872.004267 921.6 853.333333c0-18.7904-6.741333-34.645333-20.599467-48.520533C887.722667 791.534933 872.1408 785.066667 853.333333 785.066667H512zM170.666667 955.733333c-27.904 0-52.343467-10.308267-72.6528-30.600533C78.267733 905.403733 68.266667 881.2544 68.266667 853.333333c0-27.8016 9.949867-52.189867 29.5424-72.448C118.4768 760.8832 142.848 750.933333 170.666667 750.933333c27.921067 0 52.087467 10.018133 71.816533 29.7472C262.775467 800.989867 273.066667 825.429333 273.066667 853.333333c0 28.023467-10.359467 52.258133-30.805334 72.004267C222.907733 945.373867 198.690133 955.733333 170.666667 955.733333z m0-170.666666c-18.909867 0-34.850133 6.519467-48.708267 19.950933C108.919467 818.500267 102.4 834.440533 102.4 853.333333c0 18.7904 6.4512 34.389333 19.746133 47.6672C136.021333 914.858667 151.876267 921.6 170.666667 921.6c18.670933 0 34.184533-6.673067 47.4624-20.394667C232.260267 887.534933 238.933333 872.004267 238.933333 853.333333c0-18.7904-6.741333-34.645333-20.599466-48.520533C205.056 791.534933 189.474133 785.066667 170.666667 785.066667z m0-169.813334c-27.904 0-52.343467-10.308267-72.6528-30.600533C78.267733 564.923733 68.266667 540.7744 68.266667 512.853333c0-27.8016 9.949867-52.1728 29.5424-72.448C118.493867 420.386133 142.882133 410.453333 170.666667 410.453333c27.904 0 52.053333 10.001067 71.799466 29.7472C262.775467 460.4928 273.066667 484.949333 273.066667 512.853333c0 28.023467-10.359467 52.258133-30.805334 72.004267-19.3536 20.0192-43.5712 30.395733-71.594666 30.395733z m0-170.666666c-18.8928 0-34.833067 6.519467-48.708267 19.950933C108.919467 478.0032 102.4 493.943467 102.4 512.853333c0 18.7904 6.4512 34.389333 19.746133 47.6672 13.8752 13.858133 29.730133 20.599467 48.520534 20.599467 18.670933 0 34.184533-6.673067 47.4624-20.394667 14.1312-13.6704 20.804267-29.201067 20.804266-47.872 0-18.7904-6.741333-34.645333-20.599466-48.520533-13.294933-13.294933-28.8768-19.746133-47.6672-19.746133zM853.333333 614.4H512c-27.904 0-52.343467-10.308267-72.6528-30.600533C419.601067 564.0704 409.6 539.921067 409.6 512c0-27.8016 9.949867-52.1728 29.5424-72.448C459.8272 419.549867 484.1984 409.6 512 409.6h341.333333c27.921067 0 52.0704 10.001067 71.799467 29.7472C945.425067 459.656533 955.733333 484.096 955.733333 512c0 28.023467-10.359467 52.258133-30.805333 72.004267C905.591467 604.040533 881.3568 614.4 853.333333 614.4zM512 443.733333c-18.8928 0-34.850133 6.519467-48.708267 19.950934C450.2528 477.149867 443.733333 493.1072 443.733333 512c0 18.7904 6.4512 34.389333 19.746134 47.6672C477.354667 573.525333 493.2096 580.266667 512 580.266667h341.333333c18.670933 0 34.2016-6.673067 47.4624-20.394667C914.926933 546.2016 921.6 530.670933 921.6 512c0-18.7904-6.741333-34.645333-20.599467-48.520533C887.722667 450.184533 872.123733 443.733333 853.333333 443.733333H512z m341.333333-170.666666H512c-27.904 0-52.343467-10.2912-72.6528-30.600534C419.601067 222.737067 409.6 198.587733 409.6 170.666667c0-27.8016 9.949867-52.1728 29.5424-72.448C459.8272 78.216533 484.1984 68.266667 512 68.266667h341.333333c27.921067 0 52.0704 10.001067 71.799467 29.7472C945.425067 118.3232 955.733333 142.762667 955.733333 170.666667c0 28.023467-10.359467 52.241067-30.805333 72.004266C905.591467 262.7072 881.3568 273.066667 853.333333 273.066667zM512 102.4c-18.8928 0-34.850133 6.519467-48.708267 19.950933C450.2528 135.816533 443.733333 151.773867 443.733333 170.666667c0 18.7904 6.4512 34.389333 19.746134 47.650133C477.354667 232.192 493.2096 238.933333 512 238.933333h341.333333c18.670933 0 34.2016-6.673067 47.4624-20.394666C914.926933 204.8512 921.6 189.3376 921.6 170.666667c0-18.7904-6.741333-34.645333-20.599467-48.520534C887.722667 108.8512 872.123733 102.4 853.333333 102.4H512zM170.666667 273.066667c-27.904 0-52.343467-10.2912-72.6528-30.600534C78.267733 222.737067 68.266667 198.587733 68.266667 170.666667c0-27.8016 9.949867-52.1728 29.5424-72.448C118.493867 78.216533 142.865067 68.266667 170.666667 68.266667c27.921067 0 52.0704 10.001067 71.816533 29.7472C262.775467 118.3232 273.066667 142.762667 273.066667 170.666667c0 28.023467-10.359467 52.241067-30.805334 72.004266C222.907733 262.7072 198.690133 273.066667 170.666667 273.066667z m0-170.666667c-18.8928 0-34.850133 6.519467-48.708267 19.950933C108.919467 135.816533 102.4 151.773867 102.4 170.666667c0 18.7904 6.4512 34.389333 19.746133 47.650133C136.021333 232.192 151.876267 238.933333 170.666667 238.933333c18.670933 0 34.184533-6.673067 47.4624-20.394666C232.260267 204.8512 238.933333 189.3376 238.933333 170.666667c0-18.7904-6.741333-34.645333-20.599466-48.520534C205.056 108.8512 189.457067 102.4 170.666667 102.4z" p-id="10978"></path></svg>