<?xml version="1.0" standalone="no"?><!DOCTYPE svg PUBLIC "-//W3C//DTD SVG 1.1//EN" "http://www.w3.org/Graphics/SVG/1.1/DTD/svg11.dtd"><svg t="1656824471431" class="icon" viewBox="0 0 1024 1024" version="1.1" xmlns="http://www.w3.org/2000/svg" p-id="10079" xmlns:xlink="http://www.w3.org/1999/xlink" width="200" height="200"><defs><style type="text/css">@font-face { font-family: feedback-iconfont; src: url("//at.alicdn.com/t/font_1031158_u69w8yhxdu.woff2?t=1630033759944") format("woff2"), url("//at.alicdn.com/t/font_1031158_u69w8yhxdu.woff?t=1630033759944") format("woff"), url("//at.alicdn.com/t/font_1031158_u69w8yhxdu.ttf?t=1630033759944") format("truetype"); }
</style></defs><path d="M928.535273 279.272727A116.363636 116.363636 0 0 0 814.545455 186.181818c-26.251636 0-50.315636 8.983273-69.818182 23.691637V186.181818a93.090909 93.090909 0 0 0-93.090909-93.090909c-17.035636 0-32.814545 4.887273-46.545455 12.893091V93.090909a93.090909 93.090909 0 0 0-186.181818 0v59.438546A92.020364 92.020364 0 0 0 372.363636 139.636364C320.977455 139.636364 279.272727 186.181818 279.272727 232.727273v209.873454A115.432727 115.432727 0 0 0 209.454545 418.909091c-56.32 0-103.237818 39.982545-113.989818 93.090909l-1.489454 73.448727h0.651636C108.544 804.165818 289.745455 977.454545 512 977.454545a418.909091 418.909091 0 0 0 418.909091-418.90909v-3.397819L928.535273 279.272727zM837.818182 558.219636V558.545455a325.818182 325.818182 0 0 1-325.818182 325.818181c-172.823273 0-313.809455-134.656-324.747636-304.686545h-0.093091L186.181818 512h93.090909v139.636364h46.545455V232.727273h93.090909v325.818182h46.545454V93.090909h93.09091v465.454546h46.545454V186.181818h93.090909v372.363637h46.545455V279.272727h93.090909v278.341818h18.478545l-18.478545 0.605091z" p-id="10080"></path></svg>