<?xml version="1.0" standalone="no"?><!DOCTYPE svg PUBLIC "-//W3C//DTD SVG 1.1//EN" "http://www.w3.org/Graphics/SVG/1.1/DTD/svg11.dtd"><svg t="1656824415099" class="icon" viewBox="0 0 1024 1024" version="1.1" xmlns="http://www.w3.org/2000/svg" p-id="8189" xmlns:xlink="http://www.w3.org/1999/xlink" width="200" height="200"><defs><style type="text/css">@font-face { font-family: feedback-iconfont; src: url("//at.alicdn.com/t/font_1031158_u69w8yhxdu.woff2?t=1630033759944") format("woff2"), url("//at.alicdn.com/t/font_1031158_u69w8yhxdu.woff?t=1630033759944") format("woff"), url("//at.alicdn.com/t/font_1031158_u69w8yhxdu.ttf?t=1630033759944") format("truetype"); }
</style></defs><path d="M912 252.032V179.968h-68.032V112h-71.936v68.032h-224V112H475.968v68.032h-224V112H180.032v68.032H112v71.936h68.032v224H112v72h68.032v224H112v72.064h68.032v67.968h71.936v-68.032h224v68.032h72v-68.032h224v68.032h72.064v-68.032h67.968v-71.936h-68.032v-224h68.032V475.968h-68.032v-224h68.032z m-660.032 0h224v224h-224v-224z m0 519.936v-224h224v224h-224z m520.064 0h-224v-224h224v224z m0-295.936h-224v-224h224v224z" p-id="8190"></path></svg>